####### ######## ######## ##               ######## ########  ######## ######## 
##       ##       ##       ##               ##       ##     ## ##       ##       
##       ##       ##       ##               ##       ##     ## ##       ##       
######   ######   ######   ##       ####### ######   ########  ######   ######   
##       ##       ##       ##               ##       ##   ##   ##       ##       
##       ##       ##       ##               ##       ##    ##  ##       ##       
##       ######## ######## ########         ##       ##     ## ######## ######## 


Genre: Adventure | Comedy | Fantasy
Language:English
IMDb: 
http://www.imdb.com/title/tt1320261/
Source:DVDR-TWiZTED Thx
Subtitles:Romana


Format : MPEG-4
Format profile : Base Media
Codec ID : isom
File size : 1.29 GiB
Duration : 1h 24mn
Overall bit rate : 2 187 Kbps


Video
Format profile : High@L4.1
Format settings, CABAC : Yes
Format settings, ReFrames : 3 frames
Codec ID : avc1
Codec ID/Info : Advanced Video Coding
Duration : 1h 24mn
Bit rate mode : Variable
Bit rate : 1 739 Kbps
Maximum bit rate : 7 246 Kbps
Width : 720 pixels
Height : 304 pixels
Display aspect ratio : 2.35:1
Frame rate mode : Constant
Frame rate : 23.976 fps
Color space : YUV
Chroma subsampling : 4:2:0
Bit depth : 8 bits
Scan type : Progressive
Bits/(Pixel*Frame) : 0.331
Stream size : 1.03 GiB (80%)
Writing library : x264

Audio
ID : 2
Format : AAC
Format/Info : Advanced Audio Codec
Format version : Version 4
Format profile : LC
Format settings, SBR : No
Codec ID : 40
Duration : 1h 24mn
Bit rate mode : Variable
Bit rate : 440 Kbps
Maximum bit rate : 527 Kbps
Channel(s) : 6 channels
Channel positions : Front: L C R, Side: L R, LFE
Sampling rate : 48.0 KHz
Stream size : 267 MiB (20%)


Plot:
Travel writer Lemuel Gulliver takes an assignment in Bermuda, but ends up on the island of Liliput, where he towers over its tiny citizens

Greets:

INK,CRYS,IMAGINE,LKRG,FXG,3Li,FLAWL3SS,TA,iLLUSiON,ViSiON,DTRG SAFCuk009,LU,TheFalcon007,MYSTiC,PrisM,Noir,WBZ,LAP,Rx,Kingdom,SAFCuk009+Fabreezy,HDLiTE,TWiZTED,ExtraTorrentRG.ELEKTRI4KA,MAGNAT,CM8
And to all the other p2p grps past and present





================================== 
http://thepiratebay.org/user/hiest
==================================





Screenshots:
 
http://www.postimg.com/30000/29566.jpg
 
http://www.postimg.com/30000/29567.jpg
 
http://www.postimg.com/30000/29568.jpg
 
http://www.postimg.com/30000/29569.jpg
 
http://www.postimg.com/30000/29570.jpg


####### ######## ######## ##               ######## ########  ######## ######## 
##       ##       ##       ##               ##       ##     ## ##       ##       
##       ##       ##       ##               ##       ##     ## ##       ##       
######   ######   ######   ##       ####### ######   ########  ######   ######   
##       ##       ##       ##               ##       ##   ##   ##       ##       
##       ##       ##       ##               ##       ##    ##  ##       ##       
##       ######## ######## ########         ##       ##     ## ######## ######## 
